<svg width="33" height="15" viewBox="0 0 33 15" fill="none" xmlns="http://www.w3.org/2000/svg">
<rect width="33" height="15" fill="#E5E5E5"/>
<g id="Shop - web site">
<rect width="1920" height="4222" transform="translate(-1482 -64)" fill="white"/>
<g id="first-screen">
<rect id="Rectangle" x="-1482" y="-64" width="1920" height="800" fill="#F9F6F1"/>
<g id="first-screen__basket">
<g id="Group 6">
<path id="Rectangle 2" d="M0 0H33V15H0V0Z" fill="#D7B399"/>
<path id="5" d="M15.7796 6.756C16.9636 6.756 17.8356 6.992 18.3956 7.464C18.9636 7.936 19.2476 8.568 19.2476 9.36C19.2476 9.872 19.1196 10.34 18.8636 10.764C18.6076 11.18 18.2156 11.516 17.6876 11.772C17.1676 12.02 16.5236 12.144 15.7556 12.144C15.1636 12.144 14.5796 12.068 14.0036 11.916C13.4356 11.756 12.9516 11.532 12.5516 11.244L13.3196 9.756C13.6396 9.996 14.0076 10.184 14.4236 10.32C14.8396 10.448 15.2676 10.512 15.7076 10.512C16.1956 10.512 16.5796 10.416 16.8596 10.224C17.1396 10.032 17.2796 9.764 17.2796 9.42C17.2796 9.06 17.1316 8.788 16.8356 8.604C16.5476 8.42 16.0436 8.328 15.3236 8.328H13.1756L13.6076 3.6H18.7316V5.16H15.2276L15.0956 6.756H15.7796Z" fill="white"/>
</g>
</g>
</g>
</g>
</svg>
